<?xml version="1.0" encoding="UTF-8"?>
<svg id="Lager_2" data-name="Lager 2" xmlns="http://www.w3.org/2000/svg" viewBox="0 0 639.13 327.39">
  <defs>
    <style>
      .cls-1 {
        fill: #fff;
      }
    </style>
  </defs>
  <g id="Layer_3" data-name="Layer 3">
    <g>
      <path class="cls-1" d="M591.79,147.8c1.86-6.2,2.85-12.85,2.82-19.87-.15-37.9-26.57-77.67-61.86-91.67-45.94-18.21-66.79,31.33-67.77,68.56-6.47-1.21-13.06-2.34-19.74-3.39.1-5.46.21-10.92.31-16.38-15.83-2.1-31.73-3.73-47.64-5.03.15-11.37.29-22.74.44-34.12,17.03,1.9,33.93,4.25,50.83,7.06.25-12.93.5-25.85.74-38.78-29.17-6.14-58.34-10.35-88.05-12.73-.22,30.53-.44,61.07-.65,91.6-7.95-.38-15.96-.65-24.03-.81.09-30.67.19-61.33.28-92-12.39-.36-24.78-.34-37.17.06.1,30.66.21,61.31.31,91.97-19.34.41-38.36,1.45-56.88,3.09-.08-6.63-.17-13.26-.25-19.89-16.27,1.3-32.5,3.11-48.68,5.28-.18-9.47-.36-18.95-.54-28.42,17.25-2.78,34.5-5.07,51.88-6.91-.17-13.62-.33-27.23-.5-40.85-29.92,4.03-59.17,9.92-88.31,17.79.61,28.48,1.21,56.97,1.82,85.45-9.54,2.03-18.82,4.25-27.8,6.66-6.15-7.81-15.19-13.16-26.37-14.89-8.17-1.26-22.51-2.19-23.75-10.71-.79-5.42,5.99-13.28,16.22-15.98,9.06-2.39,18.87-3.99,28.6-.94,2.28-12.1,4.52-24.2,6.73-36.31-12.47-2.79-24.14.6-35.53,4.76-24.44,8.93-49.74,35.76-51.09,63.12-.83,16.88,16.38,25.53,30.9,29.36C27.2,154.14,0,181.09,0,209.73c0,31.8,33.5,61.51,94.33,83.66,60.19,21.92,140.18,34,225.24,34s165.04-12.07,225.24-34c60.83-22.15,94.33-51.86,94.33-83.66,0-22.3-16.5-43.57-47.33-61.93ZM502.88,110.04c.72-13.78,4.89-49.47,28.46-41.73,20.27,6.66,26.6,33.09,26.42,51.76-.03,3.21-.31,6.87-.91,10.63-3.89-1.58-7.9-3.13-12.05-4.64-13.12-4.78-27.18-9.09-42.02-12.91.02-1.08.05-2.13.1-3.12ZM556.1,134.73c-3.01,13.86-10.57,27.81-26.19,26.61-20.58-1.59-26.54-26.07-27.1-44.02,14.33,3.72,27.93,7.9,40.62,12.52,4.38,1.59,8.59,3.23,12.67,4.9ZM543.43,289.63c-59.77,21.77-139.27,33.75-223.87,33.75s-164.1-11.99-223.87-33.75C36.57,268.1,4,239.72,4,209.73c0-27.92,28.24-54.44,79.84-75.34,14.29,2.8,20.16,6.55,20.29,13.77.14,7.58-6.24,13.34-17.9,13.84-11.3.49-23.11-.43-34.39-4.62-2.12,9.51-4.33,19.02-6.63,28.49,12.6,5.33,26.01,6.97,39.32,7.56,31,1.39,56.38-19.7,55.87-51.97-.14-8.87-2.45-16.89-6.59-23.51,8.23-2.18,16.71-4.21,25.42-6.08.56,26.34,1.12,52.67,1.69,79.01,29.93-.13,59.85-.23,89.78-.29l-.48-40.93c-18.04.55-36.06,1.26-54.08,2.13-.2-10.88-.41-21.75-.61-32.63,16.13-1.43,32.29-2.62,48.47-3.48l-.21-16.32c18.5-1.65,37.5-2.69,56.84-3.1.02,7.15.05,14.3.07,21.45-.65,12.97-1.41,33.67-19.09,33.8-5.75.04-11.41-1.21-15.82-2.79-1.14,13.49-2.27,26.97-3.4,40.46,6.59,3.05,16.35,4.43,23.67,4.46,42.48.15,50.08-41.59,51.05-75.95.02-7.15.04-14.3.06-21.45,8.07.16,16.07.43,24.01.81-.22,31.17-.44,62.34-.67,93.5,11.98.01,23.97.03,35.95.06.3-23.48.61-46.96.91-70.43,15.83.84,31.64,1.89,47.44,3.25.11-5.99.23-11.98.34-17.97,6.69,1.05,13.29,2.19,19.77,3.41.24,38.38,17.43,84.88,62.56,84.77,29.28-.07,53.67-16.74,63.02-42.02,29.08,17.45,44.62,37.39,44.62,58.1,0,29.99-32.57,58.37-91.7,79.9Z"/>
      <path class="cls-1" d="M240.14,255.57h12.04v7.46c-1.15,1-2.85,1.95-5.08,2.83-2.23.88-4.53,1.33-6.87,1.33-2.7,0-5.25-.58-7.65-1.75-2.4-1.17-4.23-2.95-5.49-5.36s-1.89-5.4-1.89-8.97c0-2.9.52-5.59,1.56-8.07.61-1.44,1.48-2.76,2.58-3.96,1.11-1.2,2.56-2.17,4.37-2.91,1.81-.74,3.95-1.11,6.42-1.11,2.07,0,3.95.35,5.64,1.05,1.69.7,3,1.64,3.91,2.8.91,1.17,1.68,2.77,2.29,4.81l4.89-1.31c-.71-2.7-1.74-4.88-3.1-6.56-1.36-1.68-3.24-2.98-5.63-3.92-2.39-.94-5.07-1.41-8.03-1.41-4.08,0-7.68.82-10.81,2.46-3.13,1.64-5.53,4.15-7.19,7.53-1.67,3.38-2.5,7.02-2.5,10.92s.84,7.5,2.51,10.69c1.68,3.19,4.16,5.63,7.44,7.31,3.29,1.69,6.94,2.53,10.96,2.53,2.98,0,5.88-.52,8.72-1.57,2.83-1.05,5.58-2.61,8.24-4.69v-14.88l-17.35.03v4.7Z"/>
      <path class="cls-1" d="M290.03,255.05c-.74-.66-1.83-1.32-3.27-2,3.93-.53,6.83-1.77,8.71-3.72,1.88-1.95,2.82-4.35,2.82-7.19,0-2.21-.57-4.22-1.7-6.04-1.14-1.82-2.65-3.09-4.55-3.81-1.9-.72-4.67-1.08-8.32-1.08h-18.16v40.09h5.42v-17.8h6.28c1.4,0,2.4.06,3.02.19.84.2,1.66.56,2.47,1.07.81.51,1.73,1.4,2.75,2.68,1.02,1.28,2.33,3.12,3.91,5.52l5.42,8.34h6.82l-7.12-10.91c-1.42-2.13-2.91-3.91-4.5-5.33ZM282.62,248.9h-11.65v-13.26h12.96c3.04,0,5.26.61,6.66,1.83,1.41,1.22,2.11,2.78,2.11,4.68,0,1.29-.36,2.49-1.09,3.6-.73,1.1-1.79,1.91-3.18,2.41-1.4.5-3.33.75-5.81.75Z"/>
      <path class="cls-1" d="M334.97,233.15c-3.04-1.77-6.44-2.65-10.22-2.65-5.77,0-10.48,1.88-14.13,5.65-3.65,3.76-5.48,8.97-5.48,15.63,0,3.52.78,6.85,2.35,10.01,1.56,3.15,3.86,5.64,6.9,7.46,3.04,1.82,6.48,2.73,10.34,2.73,3.56,0,6.87-.82,9.94-2.47,3.07-1.65,5.45-4.08,7.12-7.29,1.68-3.21,2.51-6.84,2.51-10.91s-.8-7.6-2.39-10.76c-1.59-3.16-3.91-5.63-6.94-7.4ZM334.76,263.23c-2.64,2.81-5.99,4.21-10.07,4.21s-7.33-1.39-9.99-4.17c-2.65-2.78-3.98-6.58-3.98-11.42,0-6.03,1.38-10.34,4.15-12.92,2.77-2.58,6.07-3.87,9.9-3.87,2.7,0,5.13.67,7.3,2.01,2.17,1.34,3.82,3.23,4.94,5.66s1.69,5.28,1.69,8.54c0,5.16-1.32,9.14-3.95,11.95Z"/>
      <path class="cls-1" d="M378.15,254.34c0,5.03-.85,8.43-2.54,10.2-1.69,1.77-4.53,2.65-8.52,2.65-2.33,0-4.3-.45-5.91-1.34-1.61-.89-2.75-2.16-3.41-3.81-.66-1.65-.99-4.21-.99-7.7v-23.13h-5.42v23.16c0,4.25.52,7.6,1.56,10.05,1.04,2.45,2.78,4.33,5.22,5.62s5.58,1.94,9.41,1.94,7.14-.74,9.57-2.23c2.43-1.49,4.11-3.41,5.04-5.78.93-2.37,1.4-5.57,1.4-9.6v-23.16h-5.42v23.13Z"/>
      <path class="cls-1" d="M419.33,233.46c-1.36-.92-3.04-1.54-5.06-1.87-1.43-.25-3.51-.38-6.23-.38h-15.45v40.09h5.42v-16.3h10.5c5.79,0,9.79-1.18,12.01-3.54,2.22-2.36,3.32-5.25,3.32-8.65,0-1.99-.41-3.81-1.24-5.47-.83-1.66-1.92-2.95-3.28-3.87ZM416.06,248.35c-1.47,1.28-3.96,1.91-7.46,1.91h-10.59v-14.33h10.47c2.46,0,4.14.12,5.06.36,1.41.38,2.55,1.17,3.42,2.37.87,1.19,1.3,2.63,1.3,4.31,0,2.32-.74,4.11-2.21,5.39Z"/>
    </g>
  </g>
</svg>